<?xml version="1.0" standalone="no"?>
<!DOCTYPE svg PUBLIC "-//W3C//DTD SVG 20010904//EN"
 "http://www.w3.org/TR/2001/REC-SVG-20010904/DTD/svg10.dtd">
<svg version="1.0" xmlns="http://www.w3.org/2000/svg"
 width="512.000000pt" height="512.000000pt" viewBox="0 0 512.000000 512.000000"
 preserveAspectRatio="xMidYMid meet">
<metadata>
Created by potrace 1.14, written by Peter Selinger 2001-2017
</metadata>
<g transform="translate(0.000000,512.000000) scale(0.100000,-0.100000)"
fill="#000000" stroke="none">
<path d="M325 5101 c-91 -31 -129 -54 -191 -116 -97 -96 -140 -213 -130 -348
3 -42 11 -88 17 -104 44 -110 47 -112 978 -1046 l926 -927 -325 -325 -325
-325 -85 85 c-47 47 -89 85 -93 85 -8 0 -207 -196 -207 -204 0 -2 39 -43 87
-91 l87 -86 -107 -107 -107 -107 -89 89 -89 88 -107 -106 -107 -105 86 -87
c47 -47 86 -89 86 -92 0 -4 -139 -147 -310 -317 -170 -170 -310 -314 -310
-320 0 -5 141 -150 313 -322 l312 -313 531 531 531 531 87 -86 c48 -47 89 -86
91 -86 7 0 205 201 205 208 0 4 -38 45 -85 92 l-85 85 325 325 325 325 325
-325 325 -325 -87 -87 c-78 -79 -85 -88 -72 -104 20 -25 189 -194 194 -194 2
0 42 39 90 86 l87 87 531 -532 532 -531 317 318 317 318 -314 314 c-173 173
-315 319 -315 323 0 5 38 46 85 93 l84 85 -106 105 -106 105 -89 -88 -88 -88
-107 108 -107 108 59 57 c33 32 73 72 88 89 l29 31 -102 101 c-56 56 -104 101
-108 101 -4 0 -45 -38 -92 -85 l-85 -85 -325 325 -325 325 917 918 c504 504
927 935 941 958 55 89 79 232 56 334 -32 144 -146 272 -287 323 -65 23 -186
31 -251 16 -123 -28 -95 -2 -1083 -988 l-928 -926 -912 912 c-502 502 -924
921 -938 931 -29 21 -88 50 -134 64 -58 18 -197 18 -251 -1z"/>
</g>
</svg>
